<svg width="15" height="15" viewBox="0 0 15 15" fill="none" xmlns="http://www.w3.org/2000/svg">
<path fill-rule="evenodd" clip-rule="evenodd" d="M0.000121797 7.5C0.00012187 5.51088 0.790298 3.60322 2.19682 2.1967C3.60334 0.790176 5.511 2.00664e-07 7.50012 2.73093e-07C9.48925 3.45522e-07 11.3969 0.790177 12.8034 2.1967C14.2099 3.60322 15.0001 5.51088 15.0001 7.5C15.0001 9.48912 14.2099 11.3968 12.8034 12.8033C11.3969 14.2098 9.48924 15 7.50012 15C5.511 15 3.60334 14.2098 2.19682 12.8033C0.790298 11.3968 0.000121725 9.48912 0.000121797 7.5H0.000121797ZM7.07212 10.71L11.3901 5.312L10.6101 4.688L6.92812 9.289L4.32012 7.116L3.68012 7.884L7.07212 10.711L7.07212 10.71Z" fill="#2F2E41" fill-opacity="0.7"/>
</svg>
